<svg width="101" height="30" viewBox="0 0 101 30" fill="none" xmlns="http://www.w3.org/2000/svg">
<path d="M44.059 1.37454L42.4519 13.5779C42.3923 13.9488 42.2261 14.2543 41.9553 14.4907C41.6844 14.7271 41.381 14.8462 41.0434 14.8462H39.2737L40.4474 13.4049L41.8018 3.1618H38.118L36.2941 14.8462H34.3077L36.3844 2.06638L35.8246 1.37454H44.059ZM40.7905 8.42749L40.2307 12.7323H37.0345L37.5943 8.42749H40.7905ZM38.5875 6.52492L38.7139 5.58324H37.9554L38.1541 4.16112H38.8945L39.0028 3.43085H40.7544L40.6461 4.16112H41.4948L41.2962 5.58324H40.4655L40.3391 6.52492H41.0975L40.9169 7.94704H37.7026L37.8832 6.52492H38.5875ZM39.1292 11.5216L39.382 9.61899H38.7139L38.4611 11.5216H39.1292ZM46.6052 2.71979H47.6164L47.7067 2.12403L47.1108 1.39376H49.9098L49.7292 2.71979H50.8849L50.6502 4.54548H49.4945L49.2958 6.04448H50.1807L49.9279 7.87017H49.043L48.8444 9.36916H49.7473L49.4945 11.1949H48.6096L48.411 12.6938H49.5848L49.35 14.5003H45.0522L45.0161 14.8078H42.8672L44.2577 4.29565L43.9507 4.43017L44.2396 2.23934L46.84 1.0094L46.6052 2.71979V2.71979ZM45.287 12.6938H46.2982L46.4969 11.1949H45.4856L45.287 12.6938V12.6938ZM45.7204 9.36916H46.7316L46.9302 7.87017H45.919L45.7204 9.36916ZM46.1718 6.04448H47.1831L47.3817 4.54548H46.3704L46.1718 6.04448Z" fill="white"/>
<path d="M53.7922 8.6771L54.9299 4.56448L54.4062 3.9303H58.5234L57.7289 6.85141H61.5572L62.7129 3.1808H53.8284L54.0631 1.3551H66.4147L66.18 3.1808L64.9882 6.85141H66.7217L65.873 13.2125C65.8242 13.5834 65.6689 13.8947 65.4035 14.1446C65.138 14.3944 64.8311 14.5193 64.4825 14.5193H57.8192L59.4263 12.6936H62.5142L63.056 8.6771H53.7922Z" fill="white"/>
<path d="M68.1488 11.0125L69.3948 3.80581H70.695L69.5393 11.0125H68.1488ZM71.2909 1.82636L70.8756 1.01922H73.8732L72.0313 14.8176H69.5573L71.2909 1.82636V1.82636ZM72.7897 14.8368L75.7151 9.3982H73.9454L74.1982 7.5725H76.636L77.0333 4.51686H75.2275L75.4442 2.82569H77.25L77.3945 1.73028L76.8166 1H80.5185L80.2657 2.82569H83.3897L82.7757 7.5725H83.4981L83.2452 9.3982H80.1935L82.2701 14.8368H79.0377L77.7737 11.0317L75.7512 14.8368H72.7897ZM73.4759 7.0344L73.8009 3.80581H75.1011L74.8483 7.0344H73.4759ZM79.9226 4.51686L79.5073 7.5725H80.3018L80.6991 4.51686H79.9226Z" fill="white"/>
<path d="M84.4004 14.1543L85.5561 7.38962H87.1091L85.9353 14.1543H84.4004ZM91.6055 3.14247L90.0164 3.29621L89.8178 4.8913H91.6236L91.3708 6.85151H89.5469L88.4995 14.8461H86.2242L87.2716 6.85151H85.3755L85.6283 4.8913H87.5425L87.7231 3.52683L85.9173 3.69979L86.1701 1.73957L91.8583 1.18225L91.6055 3.14247V3.14247ZM88.9871 14.1543L89.6372 7.38962H91.1721L90.5401 14.1543H88.9871ZM91.75 12.6553L93.1585 2.04705L92.7432 1.43209H100.472L98.9912 12.6553H99.6774L99.4427 14.4426H90.9193L91.1541 12.6553H91.75V12.6553ZM94.5851 12.6553H96.1742L96.445 10.5798H94.8559L94.5851 12.6553ZM95.0726 8.85017H96.6617L96.9326 6.90917H95.3435L95.0726 8.85017ZM95.5602 5.17957H97.1493L97.4202 3.21934H95.8311L95.5602 5.17957Z" fill="white"/>
<path d="M52.4261 9.52637H62.7287L62.3734 12.0132H52.0708L52.4261 9.52637Z" fill="#5ECB64"/>
<path d="M33.55 24.667V25.635H39.105V24.667H33.55Z" fill="white"/>
<path d="M43.3452 19.068L42.6192 19.761C43.4112 20.399 44.0272 20.982 44.4562 21.532L45.2152 20.795C44.6982 20.223 44.0712 19.651 43.3452 19.068ZM49.6482 28.946H52.1782L52.4422 27.912C52.1342 27.934 51.7052 27.956 51.1552 27.967C50.5942 27.978 50.0442 27.989 49.5052 27.989C48.6692 27.989 47.9432 27.978 47.3272 27.967C46.6892 27.945 46.2052 27.846 45.8862 27.692C45.6222 27.549 45.3582 27.329 45.1052 27.032C45.0502 26.966 45.0062 26.922 44.9622 26.878V22.709H42.4982V23.677H43.9832V26.79C43.5432 27.01 43.0372 27.571 42.4872 28.462L43.2572 29.177C43.8182 28.187 44.2142 27.692 44.4452 27.692C44.5772 27.692 44.7092 27.78 44.8522 27.967C45.1822 28.341 45.5562 28.605 45.9962 28.737C46.4472 28.847 47.0192 28.913 47.7232 28.924C48.4162 28.935 49.0542 28.946 49.6482 28.946ZM46.3372 19.519V20.487H51.4852V19.519H46.3372ZM45.6442 22.005V22.995H47.8552C47.0302 24.986 46.3922 26.053 45.9522 26.185L46.2162 27.087C48.1302 26.889 49.6922 26.647 50.8802 26.35C50.9902 26.658 51.1002 26.966 51.2102 27.296L52.1452 27.054C51.6942 25.756 51.1772 24.612 50.6052 23.611L49.7582 23.886C50.0222 24.381 50.2752 24.898 50.5172 25.448C49.6702 25.668 48.6362 25.844 47.4042 25.998C47.8772 25.305 48.3722 24.304 48.9002 22.995H52.2882V22.005H45.6442Z" fill="white"/>
<path d="M57.7332 22.962V25.316H63.4422V22.962H57.7332ZM62.4852 24.546H58.7012V23.754H62.4852V24.546ZM64.4762 25.91H56.7432V29.144H57.7662V28.715H63.4642V29.144H64.4762V25.91ZM57.7662 27.846V26.768H63.4642V27.846H57.7662ZM55.7972 19.662V20.575H58.1842V21.136H59.2182V20.575H61.9022V21.136H62.9362V20.575H65.3232V19.662H62.9362V19.002H61.9022V19.662H59.2182V19.002H58.1842V19.662H55.7972ZM65.1032 21.477H56.0172V23.721H57.0182V22.357H64.1022V23.666H65.1032V21.477Z" fill="white"/>
<path d="M70.8892 23.039H78.6992V22.027H70.8892V20.707C73.5512 20.641 75.9602 20.399 78.1052 19.992L77.5882 19.046C75.3222 19.497 72.7372 19.739 69.8552 19.761V23.182C69.8002 25.36 69.3932 27.065 68.6452 28.297L69.4152 29.111C70.3282 27.637 70.8232 25.668 70.8892 23.182V23.039ZM77.8742 24.337H71.7252V29.133H72.7702V28.693H76.8292V29.133H77.8742V24.337ZM72.7702 27.67V25.338H76.8292V27.67H72.7702Z" fill="white"/>
<path d="M90.7222 24.469H83.1982V29.144H84.2542V28.693H89.6662V29.144H90.7222V24.469ZM84.2542 27.692V25.47H89.6662V27.692H84.2542ZM82.4832 23.446C85.2992 23.336 87.8622 23.182 90.1612 22.984C90.4142 23.391 90.6672 23.82 90.9312 24.282L91.9542 23.776C91.1512 22.445 90.3042 21.235 89.4132 20.135L88.4672 20.586C88.8302 21.048 89.1932 21.532 89.5452 22.06C87.7962 22.225 85.9922 22.346 84.1222 22.412C85.0462 21.576 85.9482 20.542 86.8392 19.31L85.7502 18.936C84.2762 21.092 83.1212 22.269 82.2852 22.456L82.4832 23.446Z" fill="white"/>
<path d="M95.2102 24.667V25.635H100.765V24.667H95.2102Z" fill="white"/>
<rect width="30" height="30" rx="4" fill="white"/>
<path d="M20.8767 23.3756C19.8213 23.3756 18.9628 22.5054 18.9628 21.4357V15.1682H19.5514V21.4357C19.5514 22.1765 20.1458 22.779 20.8761 22.779C21.6064 22.779 22.2009 22.1765 22.2009 21.4357V21.2592H22.7895V21.4357C22.7895 22.5054 21.9309 23.3756 20.8755 23.3756H20.8767Z" fill="#202227"/>
<path d="M8.41395 23.0774C7.35858 23.0774 6.5 22.2072 6.5 21.1375V20.961H7.08864V21.1375C7.08864 21.8783 7.68308 22.4808 8.41336 22.4808C9.14365 22.4808 9.73808 21.8783 9.73808 21.1375V14.87H10.3267V21.1375C10.3267 22.2072 9.46815 23.0774 8.41278 23.0774H8.41395Z" fill="#202227"/>
<path d="M14.902 20.4902C14.6541 20.4902 14.4526 20.286 14.4526 20.0348V18.6997H14.6616V20.0348C14.6616 20.1689 14.7696 20.2783 14.902 20.2783C15.0343 20.2783 15.1423 20.1689 15.1423 20.0348V19.9971H15.3513V20.0348C15.3513 20.286 15.1498 20.4902 14.902 20.4902Z" fill="#202227"/>
<path d="M14.212 20.4902C13.9641 20.4902 13.7627 20.286 13.7627 20.0348V19.9971H13.9717V20.0348C13.9717 20.1689 14.0797 20.2783 14.212 20.2783C14.3444 20.2783 14.4523 20.1689 14.4523 20.0348V18.6997H14.6613V20.0348C14.6613 20.286 14.4599 20.4902 14.212 20.4902Z" fill="#202227"/>
<path d="M17.2289 16.511C16.7842 16.511 16.3465 16.3998 15.9529 16.188C15.5593 16.3998 15.1222 16.511 14.6769 16.511C14.2317 16.511 13.7946 16.3998 13.401 16.188C13.0074 16.3998 12.5703 16.511 12.125 16.511C10.5826 16.511 9.32812 15.1942 9.32812 13.5761C9.32812 11.958 10.5826 10.6412 12.125 10.6412C12.1778 10.6412 12.2312 10.643 12.2847 10.646C12.7607 9.66864 13.7156 9.04907 14.7745 9.04907C15.8333 9.04907 16.7848 9.66747 17.2619 10.6412C18.7887 10.6607 20.0252 11.9692 20.0252 13.5761C20.0252 15.183 18.7707 16.511 17.2283 16.511H17.2289ZM15.9529 15.4937L16.1073 15.5902C16.4463 15.802 16.8335 15.9144 17.2283 15.9144C18.4456 15.9144 19.4365 14.8659 19.4365 13.5767C19.4365 12.2875 18.4462 11.239 17.2283 11.239C17.183 11.239 17.1383 11.2408 17.0942 11.2438L16.8835 11.2573L16.8028 11.0596C16.4527 10.2011 15.6568 9.64687 14.7745 9.64687C13.8921 9.64687 13.0852 10.2082 12.7392 11.0772L12.6527 11.2938L12.4246 11.2608C12.323 11.2461 12.222 11.239 12.1244 11.239C10.9071 11.239 9.91618 12.2875 9.91618 13.5767C9.91618 14.8659 10.9065 15.9144 12.1244 15.9144C12.5192 15.9144 12.907 15.8026 13.2454 15.5902L13.3998 15.4937L13.5542 15.5902C13.8932 15.802 14.2805 15.9144 14.6752 15.9144C15.0699 15.9144 15.4577 15.8026 15.7962 15.5902L15.9506 15.4937H15.9529Z" fill="#202227"/>
<path d="M11.7013 18.0038C11.918 18.0038 12.0937 17.6919 12.0937 17.3071C12.0937 16.9224 11.918 16.6105 11.7013 16.6105C11.4845 16.6105 11.3088 16.9224 11.3088 17.3071C11.3088 17.6919 11.4845 18.0038 11.7013 18.0038Z" fill="#202227"/>
<path d="M17.7855 18.0038C18.0022 18.0038 18.1779 17.6919 18.1779 17.3071C18.1779 16.9224 18.0022 16.6105 17.7855 16.6105C17.5688 16.6105 17.3931 16.9224 17.3931 17.3071C17.3931 17.6919 17.5688 18.0038 17.7855 18.0038Z" fill="#202227"/>
<path d="M14.5476 21.5845C13.5195 21.5845 12.683 20.7449 12.683 19.7129C12.683 19.2616 12.842 18.8338 13.1329 18.4943C13.1625 17.6694 13.786 17.0081 14.5476 17.0081C15.3092 17.0081 15.9327 17.6694 15.9623 18.4943C16.2531 18.8338 16.4122 19.2616 16.4122 19.7129C16.4122 20.7449 15.5757 21.5845 14.5476 21.5845ZM14.5476 17.6053C14.0913 17.6053 13.7204 18.0318 13.7204 18.5561L13.7273 18.7285L13.6368 18.8203C13.4011 19.0603 13.2716 19.3769 13.2716 19.7123C13.2716 20.4154 13.844 20.9873 14.5476 20.9873C15.2512 20.9873 15.8235 20.4154 15.8235 19.7123C15.8235 19.3769 15.6935 19.0603 15.4584 18.8203L15.3678 18.7285L15.3748 18.5561C15.3748 18.0318 15.0039 17.6053 14.5476 17.6053Z" fill="#202227"/>
<path d="M14.0564 18.501H14.5469H15.038L14.7925 18.6722L14.5469 18.8434L14.302 18.6722L14.0564 18.501Z" fill="#202227"/>
<path d="M10.4675 7.10205C11.07 7.78516 12.3437 9.27025 12.966 10.2923L13.5145 10.0587C12.6775 8.64479 10.6637 6.42952 10.5708 6.32773L10.2718 6L10.0872 6.4054C9.34533 8.03523 10.1046 10.4094 10.4657 11.3561L11.0102 11.1242C10.7107 10.3288 10.1197 8.48534 10.4675 7.10205V7.10205Z" fill="#202227"/>
<path d="M19.7533 7.48164C19.0689 8.08003 17.6159 9.38448 16.8682 10.3165L16.3539 10.0129C17.3651 8.72078 19.6448 6.78911 19.7499 6.70026L20.0883 6.41431L20.2195 6.8403C20.7466 8.55368 19.6901 10.8084 19.2112 11.6992L18.7009 11.3979C19.0997 10.6489 19.9217 8.89847 19.7539 7.48105L19.7533 7.48164Z" fill="#202227"/>
</svg>
